<mxfile host="app.diagrams.net" modified="2024-02-04T07:16:30.140Z" agent="Mozilla/5.0 (Windows NT 10.0; Win64; x64) AppleWebKit/537.36 (KHTML, like Gecko) Chrome/116.0.0.0 Safari/537.36" etag="85cild0h81gVdyDvFiL8" version="23.0.1" type="github">
  <diagram name="Page-1" id="edf60f1a-56cd-e834-aa8a-f176f3a09ee4">
    <mxGraphModel dx="2385" dy="1675" grid="1" gridSize="10" guides="1" tooltips="1" connect="1" arrows="1" fold="1" page="1" pageScale="1" pageWidth="1100" pageHeight="850" background="none" math="0" shadow="0">
      <root>
        <mxCell id="0" />
        <mxCell id="1" parent="0" />
        <mxCell id="ZpmbG97iYEicjdPn57bY-4" value="" style="edgeStyle=none;curved=1;rounded=0;orthogonalLoop=1;jettySize=auto;html=1;fontSize=12;startSize=8;endSize=8;" edge="1" parent="1" source="ZpmbG97iYEicjdPn57bY-1" target="ZpmbG97iYEicjdPn57bY-3">
          <mxGeometry relative="1" as="geometry" />
        </mxCell>
        <mxCell id="ZpmbG97iYEicjdPn57bY-1" value="Start" style="ellipse;whiteSpace=wrap;html=1;fontSize=16;" vertex="1" parent="1">
          <mxGeometry x="245" y="20" width="80" height="50" as="geometry" />
        </mxCell>
        <mxCell id="ZpmbG97iYEicjdPn57bY-2" value="WIN" style="ellipse;whiteSpace=wrap;html=1;fontSize=16;color=&quot;green&quot;;fillColor=#99FF99;" vertex="1" parent="1">
          <mxGeometry x="615" y="30" width="80" height="50" as="geometry" />
        </mxCell>
        <mxCell id="ZpmbG97iYEicjdPn57bY-6" value="" style="edgeStyle=none;curved=1;rounded=0;orthogonalLoop=1;jettySize=auto;html=1;fontSize=12;startSize=8;endSize=8;" edge="1" parent="1" source="ZpmbG97iYEicjdPn57bY-3" target="ZpmbG97iYEicjdPn57bY-5">
          <mxGeometry relative="1" as="geometry" />
        </mxCell>
        <mxCell id="ZpmbG97iYEicjdPn57bY-3" value="Giving two random cards two users" style="whiteSpace=wrap;html=1;fontSize=16;" vertex="1" parent="1">
          <mxGeometry x="225" y="90" width="120" height="60" as="geometry" />
        </mxCell>
        <mxCell id="ZpmbG97iYEicjdPn57bY-8" value="" style="edgeStyle=none;curved=1;rounded=0;orthogonalLoop=1;jettySize=auto;html=1;fontSize=12;startSize=8;endSize=8;" edge="1" parent="1" source="ZpmbG97iYEicjdPn57bY-5">
          <mxGeometry relative="1" as="geometry">
            <mxPoint x="285" y="250" as="targetPoint" />
          </mxGeometry>
        </mxCell>
        <mxCell id="ZpmbG97iYEicjdPn57bY-10" value="" style="edgeStyle=none;curved=1;rounded=0;orthogonalLoop=1;jettySize=auto;html=1;fontSize=12;startSize=8;endSize=8;" edge="1" parent="1" source="ZpmbG97iYEicjdPn57bY-5" target="ZpmbG97iYEicjdPn57bY-9">
          <mxGeometry relative="1" as="geometry" />
        </mxCell>
        <mxCell id="ZpmbG97iYEicjdPn57bY-5" value="Calculate their total score" style="whiteSpace=wrap;html=1;fontSize=16;" vertex="1" parent="1">
          <mxGeometry x="225" y="170" width="120" height="60" as="geometry" />
        </mxCell>
        <mxCell id="ZpmbG97iYEicjdPn57bY-19" style="edgeStyle=elbowEdgeStyle;rounded=0;orthogonalLoop=1;jettySize=auto;html=1;exitX=1;exitY=0.5;exitDx=0;exitDy=0;fontSize=12;startSize=8;endSize=8;entryX=0;entryY=0.5;entryDx=0;entryDy=0;" edge="1" parent="1" source="ZpmbG97iYEicjdPn57bY-9" target="ZpmbG97iYEicjdPn57bY-22">
          <mxGeometry relative="1" as="geometry">
            <mxPoint x="545" y="310" as="targetPoint" />
          </mxGeometry>
        </mxCell>
        <mxCell id="ZpmbG97iYEicjdPn57bY-20" style="edgeStyle=elbowEdgeStyle;rounded=0;orthogonalLoop=1;jettySize=auto;html=1;exitX=1;exitY=0.5;exitDx=0;exitDy=0;fontSize=12;startSize=8;endSize=8;entryX=0;entryY=0.5;entryDx=0;entryDy=0;" edge="1" parent="1" source="ZpmbG97iYEicjdPn57bY-9" target="ZpmbG97iYEicjdPn57bY-25">
          <mxGeometry relative="1" as="geometry">
            <mxPoint x="535" y="410" as="targetPoint" />
          </mxGeometry>
        </mxCell>
        <mxCell id="ZpmbG97iYEicjdPn57bY-29" value="" style="edgeStyle=none;curved=1;rounded=0;orthogonalLoop=1;jettySize=auto;html=1;fontSize=12;startSize=8;endSize=8;" edge="1" parent="1" source="ZpmbG97iYEicjdPn57bY-9" target="ZpmbG97iYEicjdPn57bY-28">
          <mxGeometry relative="1" as="geometry" />
        </mxCell>
        <mxCell id="ZpmbG97iYEicjdPn57bY-9" value="Does user or computer have blackjack (ace + 10)" style="rhombus;whiteSpace=wrap;html=1;fontSize=16;" vertex="1" parent="1">
          <mxGeometry x="165" y="270" width="240" height="180" as="geometry" />
        </mxCell>
        <mxCell id="ZpmbG97iYEicjdPn57bY-11" value="LOSE" style="ellipse;whiteSpace=wrap;html=1;fontSize=16;fillColor=#FF6666;" vertex="1" parent="1">
          <mxGeometry x="745" y="30" width="80" height="50" as="geometry" />
        </mxCell>
        <mxCell id="ZpmbG97iYEicjdPn57bY-12" value="DRAW" style="ellipse;whiteSpace=wrap;html=1;fontSize=16;fillColor=#fff2cc;strokeColor=#d6b656;" vertex="1" parent="1">
          <mxGeometry x="885" y="30" width="80" height="50" as="geometry" />
        </mxCell>
        <mxCell id="ZpmbG97iYEicjdPn57bY-22" value="WIN" style="ellipse;whiteSpace=wrap;html=1;fontSize=16;color=&quot;green&quot;;fillColor=#99FF99;" vertex="1" parent="1">
          <mxGeometry x="555" y="280" width="80" height="50" as="geometry" />
        </mxCell>
        <mxCell id="ZpmbG97iYEicjdPn57bY-25" value="LOSE" style="ellipse;whiteSpace=wrap;html=1;fontSize=16;fillColor=#FF6666;" vertex="1" parent="1">
          <mxGeometry x="555" y="390" width="80" height="50" as="geometry" />
        </mxCell>
        <mxCell id="ZpmbG97iYEicjdPn57bY-26" value="user got blackjack" style="text;html=1;align=center;verticalAlign=middle;resizable=0;points=[];autosize=1;strokeColor=none;fillColor=none;fontSize=16;" vertex="1" parent="1">
          <mxGeometry x="390" y="270" width="150" height="30" as="geometry" />
        </mxCell>
        <mxCell id="ZpmbG97iYEicjdPn57bY-27" value="computer got blackjack" style="text;html=1;align=center;verticalAlign=middle;resizable=0;points=[];autosize=1;strokeColor=none;fillColor=none;fontSize=16;" vertex="1" parent="1">
          <mxGeometry x="385" y="425" width="190" height="30" as="geometry" />
        </mxCell>
        <mxCell id="ZpmbG97iYEicjdPn57bY-33" value="" style="edgeStyle=none;curved=1;rounded=0;orthogonalLoop=1;jettySize=auto;html=1;fontSize=12;startSize=8;endSize=8;" edge="1" parent="1" source="ZpmbG97iYEicjdPn57bY-28" target="ZpmbG97iYEicjdPn57bY-32">
          <mxGeometry relative="1" as="geometry" />
        </mxCell>
        <mxCell id="ZpmbG97iYEicjdPn57bY-45" value="" style="edgeStyle=none;curved=1;rounded=0;orthogonalLoop=1;jettySize=auto;html=1;fontSize=12;startSize=8;endSize=8;exitX=0.5;exitY=1;exitDx=0;exitDy=0;entryX=0.5;entryY=0;entryDx=0;entryDy=0;" edge="1" parent="1" source="ZpmbG97iYEicjdPn57bY-28" target="ZpmbG97iYEicjdPn57bY-44">
          <mxGeometry relative="1" as="geometry" />
        </mxCell>
        <mxCell id="ZpmbG97iYEicjdPn57bY-28" value="Is user&#39;s score over 21 ?" style="rhombus;whiteSpace=wrap;html=1;fontSize=16;" vertex="1" parent="1">
          <mxGeometry x="182.52999999999997" y="540" width="200" height="140" as="geometry" />
        </mxCell>
        <mxCell id="ZpmbG97iYEicjdPn57bY-30" value="No" style="text;html=1;align=center;verticalAlign=middle;resizable=0;points=[];autosize=1;strokeColor=none;fillColor=none;fontSize=16;" vertex="1" parent="1">
          <mxGeometry x="245" y="470" width="40" height="30" as="geometry" />
        </mxCell>
        <mxCell id="ZpmbG97iYEicjdPn57bY-36" value="" style="edgeStyle=none;curved=1;rounded=0;orthogonalLoop=1;jettySize=auto;html=1;fontSize=12;startSize=8;endSize=8;entryX=0;entryY=0.5;entryDx=0;entryDy=0;exitX=1;exitY=0.5;exitDx=0;exitDy=0;" edge="1" parent="1" source="ZpmbG97iYEicjdPn57bY-32" target="ZpmbG97iYEicjdPn57bY-35">
          <mxGeometry relative="1" as="geometry">
            <mxPoint x="794.9971532846714" y="613.007299270073" as="targetPoint" />
          </mxGeometry>
        </mxCell>
        <mxCell id="ZpmbG97iYEicjdPn57bY-40" style="edgeStyle=orthogonalEdgeStyle;rounded=0;orthogonalLoop=1;jettySize=auto;html=1;exitX=0.5;exitY=0;exitDx=0;exitDy=0;entryX=0;entryY=0.5;entryDx=0;entryDy=0;fontSize=12;startSize=8;endSize=8;elbow=vertical;" edge="1" parent="1" source="ZpmbG97iYEicjdPn57bY-32" target="ZpmbG97iYEicjdPn57bY-37">
          <mxGeometry relative="1" as="geometry" />
        </mxCell>
        <mxCell id="ZpmbG97iYEicjdPn57bY-32" value="Do they have (Ace) ?" style="rhombus;whiteSpace=wrap;html=1;fontSize=16;" vertex="1" parent="1">
          <mxGeometry x="502.53" y="540" width="200" height="140" as="geometry" />
        </mxCell>
        <mxCell id="ZpmbG97iYEicjdPn57bY-34" value="Yes" style="text;html=1;align=center;verticalAlign=middle;resizable=0;points=[];autosize=1;strokeColor=none;fillColor=none;fontSize=16;" vertex="1" parent="1">
          <mxGeometry x="397.53" y="578" width="50" height="30" as="geometry" />
        </mxCell>
        <mxCell id="ZpmbG97iYEicjdPn57bY-39" style="edgeStyle=elbowEdgeStyle;rounded=0;orthogonalLoop=1;jettySize=auto;html=1;exitX=0.5;exitY=0;exitDx=0;exitDy=0;entryX=1;entryY=0.5;entryDx=0;entryDy=0;fontSize=12;startSize=8;endSize=8;elbow=vertical;" edge="1" parent="1" source="ZpmbG97iYEicjdPn57bY-35" target="ZpmbG97iYEicjdPn57bY-37">
          <mxGeometry relative="1" as="geometry" />
        </mxCell>
        <mxCell id="ZpmbG97iYEicjdPn57bY-49" style="edgeStyle=orthogonalEdgeStyle;rounded=0;orthogonalLoop=1;jettySize=auto;html=1;exitX=0.5;exitY=1;exitDx=0;exitDy=0;entryX=1;entryY=0;entryDx=0;entryDy=0;fontSize=12;startSize=8;endSize=8;" edge="1" parent="1" source="ZpmbG97iYEicjdPn57bY-35" target="ZpmbG97iYEicjdPn57bY-44">
          <mxGeometry relative="1" as="geometry" />
        </mxCell>
        <mxCell id="ZpmbG97iYEicjdPn57bY-35" value="if Converted Ace from&lt;br&gt;&amp;nbsp;point 11 to 01 , is score still over 21?" style="rhombus;whiteSpace=wrap;html=1;fontSize=16;" vertex="1" parent="1">
          <mxGeometry x="790" y="505" width="260" height="210" as="geometry" />
        </mxCell>
        <mxCell id="ZpmbG97iYEicjdPn57bY-37" value="LOSE" style="ellipse;whiteSpace=wrap;html=1;fontSize=16;fillColor=#FF6666;" vertex="1" parent="1">
          <mxGeometry x="702.53" y="480" width="80" height="50" as="geometry" />
        </mxCell>
        <mxCell id="ZpmbG97iYEicjdPn57bY-41" value="No" style="text;html=1;align=center;verticalAlign=middle;resizable=0;points=[];autosize=1;strokeColor=none;fillColor=none;fontSize=16;" vertex="1" parent="1">
          <mxGeometry x="615" y="508" width="40" height="30" as="geometry" />
        </mxCell>
        <mxCell id="ZpmbG97iYEicjdPn57bY-42" value="Yes" style="text;html=1;align=center;verticalAlign=middle;resizable=0;points=[];autosize=1;strokeColor=none;fillColor=none;fontSize=16;" vertex="1" parent="1">
          <mxGeometry x="820" y="508" width="50" height="30" as="geometry" />
        </mxCell>
        <mxCell id="ZpmbG97iYEicjdPn57bY-43" value="Yes" style="text;html=1;align=center;verticalAlign=middle;resizable=0;points=[];autosize=1;strokeColor=none;fillColor=none;fontSize=16;" vertex="1" parent="1">
          <mxGeometry x="740" y="618" width="50" height="30" as="geometry" />
        </mxCell>
        <mxCell id="ZpmbG97iYEicjdPn57bY-47" value="" style="edgeStyle=none;curved=1;rounded=0;orthogonalLoop=1;jettySize=auto;html=1;fontSize=12;startSize=8;endSize=8;" edge="1" parent="1" source="ZpmbG97iYEicjdPn57bY-44" target="ZpmbG97iYEicjdPn57bY-46">
          <mxGeometry relative="1" as="geometry" />
        </mxCell>
        <mxCell id="ZpmbG97iYEicjdPn57bY-53" value="" style="edgeStyle=none;curved=1;rounded=0;orthogonalLoop=1;jettySize=auto;html=1;fontSize=12;startSize=8;endSize=8;exitX=0.5;exitY=1;exitDx=0;exitDy=0;entryX=0.5;entryY=0;entryDx=0;entryDy=0;" edge="1" parent="1" source="ZpmbG97iYEicjdPn57bY-44" target="ZpmbG97iYEicjdPn57bY-52">
          <mxGeometry relative="1" as="geometry" />
        </mxCell>
        <mxCell id="ZpmbG97iYEicjdPn57bY-44" value="Ask the user if &lt;br&gt;they want another card" style="rhombus;whiteSpace=wrap;html=1;fontSize=16;" vertex="1" parent="1">
          <mxGeometry x="182.52999999999997" y="760" width="200" height="140" as="geometry" />
        </mxCell>
        <mxCell id="ZpmbG97iYEicjdPn57bY-76" style="edgeStyle=orthogonalEdgeStyle;rounded=0;orthogonalLoop=1;jettySize=auto;html=1;exitX=1;exitY=0.5;exitDx=0;exitDy=0;entryX=1;entryY=0.5;entryDx=0;entryDy=0;fontSize=12;startSize=8;endSize=8;" edge="1" parent="1" source="ZpmbG97iYEicjdPn57bY-46" target="ZpmbG97iYEicjdPn57bY-5">
          <mxGeometry relative="1" as="geometry">
            <Array as="points">
              <mxPoint x="1070" y="830" />
              <mxPoint x="1070" y="200" />
            </Array>
          </mxGeometry>
        </mxCell>
        <mxCell id="ZpmbG97iYEicjdPn57bY-46" value="Draw another Card" style="whiteSpace=wrap;html=1;fontSize=16;" vertex="1" parent="1">
          <mxGeometry x="542.53" y="800" width="120" height="60" as="geometry" />
        </mxCell>
        <mxCell id="ZpmbG97iYEicjdPn57bY-48" value="Yes" style="text;html=1;align=center;verticalAlign=middle;resizable=0;points=[];autosize=1;strokeColor=none;fillColor=none;fontSize=16;" vertex="1" parent="1">
          <mxGeometry x="390" y="798" width="50" height="30" as="geometry" />
        </mxCell>
        <mxCell id="ZpmbG97iYEicjdPn57bY-50" value="No" style="text;html=1;align=center;verticalAlign=middle;resizable=0;points=[];autosize=1;strokeColor=none;fillColor=none;fontSize=16;" vertex="1" parent="1">
          <mxGeometry x="915" y="740" width="40" height="30" as="geometry" />
        </mxCell>
        <mxCell id="ZpmbG97iYEicjdPn57bY-56" value="" style="edgeStyle=none;curved=1;rounded=0;orthogonalLoop=1;jettySize=auto;html=1;fontSize=12;startSize=8;endSize=8;" edge="1" parent="1" source="ZpmbG97iYEicjdPn57bY-52" target="ZpmbG97iYEicjdPn57bY-55">
          <mxGeometry relative="1" as="geometry" />
        </mxCell>
        <mxCell id="ZpmbG97iYEicjdPn57bY-52" value="Computer plays, if score is less than 17 , keep drawing cards" style="whiteSpace=wrap;html=1;fontSize=16;" vertex="1" parent="1">
          <mxGeometry x="155" y="970" width="260" height="100" as="geometry" />
        </mxCell>
        <mxCell id="ZpmbG97iYEicjdPn57bY-61" style="edgeStyle=none;curved=1;rounded=0;orthogonalLoop=1;jettySize=auto;html=1;exitX=1;exitY=0.5;exitDx=0;exitDy=0;entryX=0;entryY=0.5;entryDx=0;entryDy=0;fontSize=12;startSize=8;endSize=8;" edge="1" parent="1" source="ZpmbG97iYEicjdPn57bY-55" target="ZpmbG97iYEicjdPn57bY-60">
          <mxGeometry relative="1" as="geometry" />
        </mxCell>
        <mxCell id="ZpmbG97iYEicjdPn57bY-64" style="edgeStyle=none;curved=1;rounded=0;orthogonalLoop=1;jettySize=auto;html=1;exitX=0.5;exitY=1;exitDx=0;exitDy=0;entryX=0.5;entryY=0;entryDx=0;entryDy=0;fontSize=12;startSize=8;endSize=8;" edge="1" parent="1" source="ZpmbG97iYEicjdPn57bY-55" target="ZpmbG97iYEicjdPn57bY-63">
          <mxGeometry relative="1" as="geometry" />
        </mxCell>
        <mxCell id="ZpmbG97iYEicjdPn57bY-55" value="Has computer went &lt;br&gt;over 21?" style="rhombus;whiteSpace=wrap;html=1;fontSize=16;" vertex="1" parent="1">
          <mxGeometry x="182.52999999999997" y="1110" width="200" height="160" as="geometry" />
        </mxCell>
        <mxCell id="ZpmbG97iYEicjdPn57bY-58" value="WIN" style="ellipse;whiteSpace=wrap;html=1;fontSize=16;color=&quot;green&quot;;fillColor=#99FF99;" vertex="1" parent="1">
          <mxGeometry x="5" y="1405" width="80" height="50" as="geometry" />
        </mxCell>
        <mxCell id="ZpmbG97iYEicjdPn57bY-60" value="WIN" style="ellipse;whiteSpace=wrap;html=1;fontSize=16;color=&quot;green&quot;;fillColor=#99FF99;" vertex="1" parent="1">
          <mxGeometry x="478.76" y="1165" width="80" height="50" as="geometry" />
        </mxCell>
        <mxCell id="ZpmbG97iYEicjdPn57bY-62" value="Yes" style="text;html=1;align=center;verticalAlign=middle;resizable=0;points=[];autosize=1;strokeColor=none;fillColor=none;fontSize=16;" vertex="1" parent="1">
          <mxGeometry x="400" y="1158" width="50" height="30" as="geometry" />
        </mxCell>
        <mxCell id="ZpmbG97iYEicjdPn57bY-70" style="edgeStyle=none;curved=1;rounded=0;orthogonalLoop=1;jettySize=auto;html=1;exitX=1;exitY=0.5;exitDx=0;exitDy=0;entryX=0;entryY=0.5;entryDx=0;entryDy=0;fontSize=12;startSize=8;endSize=8;" edge="1" parent="1" source="ZpmbG97iYEicjdPn57bY-63" target="ZpmbG97iYEicjdPn57bY-68">
          <mxGeometry relative="1" as="geometry" />
        </mxCell>
        <mxCell id="ZpmbG97iYEicjdPn57bY-71" style="edgeStyle=none;curved=1;rounded=0;orthogonalLoop=1;jettySize=auto;html=1;exitX=0;exitY=0.5;exitDx=0;exitDy=0;entryX=1;entryY=0.5;entryDx=0;entryDy=0;fontSize=12;startSize=8;endSize=8;" edge="1" parent="1" source="ZpmbG97iYEicjdPn57bY-63" target="ZpmbG97iYEicjdPn57bY-58">
          <mxGeometry relative="1" as="geometry" />
        </mxCell>
        <mxCell id="ZpmbG97iYEicjdPn57bY-72" style="edgeStyle=none;curved=1;rounded=0;orthogonalLoop=1;jettySize=auto;html=1;exitX=0.5;exitY=1;exitDx=0;exitDy=0;entryX=0.5;entryY=0;entryDx=0;entryDy=0;fontSize=12;startSize=8;endSize=8;" edge="1" parent="1" source="ZpmbG97iYEicjdPn57bY-63" target="ZpmbG97iYEicjdPn57bY-69">
          <mxGeometry relative="1" as="geometry" />
        </mxCell>
        <mxCell id="ZpmbG97iYEicjdPn57bY-63" value="Who&#39;s score is&lt;br&gt;&amp;nbsp;higher?" style="rhombus;whiteSpace=wrap;html=1;fontSize=16;" vertex="1" parent="1">
          <mxGeometry x="195" y="1340" width="180" height="180" as="geometry" />
        </mxCell>
        <mxCell id="ZpmbG97iYEicjdPn57bY-68" value="LOSE" style="ellipse;whiteSpace=wrap;html=1;fontSize=16;fillColor=#FF6666;" vertex="1" parent="1">
          <mxGeometry x="485" y="1405" width="80" height="50" as="geometry" />
        </mxCell>
        <mxCell id="ZpmbG97iYEicjdPn57bY-69" value="DRAW" style="ellipse;whiteSpace=wrap;html=1;fontSize=16;fillColor=#fff2cc;strokeColor=#d6b656;" vertex="1" parent="1">
          <mxGeometry x="245" y="1600" width="80" height="50" as="geometry" />
        </mxCell>
        <mxCell id="ZpmbG97iYEicjdPn57bY-73" value="User score High" style="text;html=1;align=center;verticalAlign=middle;resizable=0;points=[];autosize=1;strokeColor=none;fillColor=none;fontSize=16;" vertex="1" parent="1">
          <mxGeometry x="65" y="1388" width="140" height="30" as="geometry" />
        </mxCell>
        <mxCell id="ZpmbG97iYEicjdPn57bY-74" value="User score low" style="text;html=1;align=center;verticalAlign=middle;resizable=0;points=[];autosize=1;strokeColor=none;fillColor=none;fontSize=16;" vertex="1" parent="1">
          <mxGeometry x="360" y="1400" width="130" height="30" as="geometry" />
        </mxCell>
        <mxCell id="ZpmbG97iYEicjdPn57bY-75" value="Same score" style="text;html=1;align=center;verticalAlign=middle;resizable=0;points=[];autosize=1;strokeColor=none;fillColor=none;fontSize=16;" vertex="1" parent="1">
          <mxGeometry x="285" y="1550" width="110" height="30" as="geometry" />
        </mxCell>
      </root>
    </mxGraphModel>
  </diagram>
</mxfile>
